# Blender v2.79 (sub 0) OBJ File: ''
# www.blender.org
mtllib box.mtl
o Cube
v 1.000000 -1.000000 -1.000000
v 1.000000 -1.000000 1.000000
v -1.000000 -1.000000 1.000000
v -1.000000 -1.000000 -1.000000
v 1.000000 1.000000 -0.999999
v 0.999999 1.000000 1.000001
v -1.000000 1.000000 1.000000
v -1.000000 1.000000 -1.000000
v 0.884551 -1.000000 -0.884551
v 0.884551 -1.000000 0.884551
v -0.884551 -1.000000 0.884551
v -0.884551 -1.000000 -0.884552
v 0.884552 1.000000 -0.884551
v -0.884551 1.000000 -0.884551
v -0.884552 1.000000 0.884551
v 0.884551 1.000000 0.884552
v 1.000000 -0.884551 -0.884551
v 1.000000 0.884551 -0.884551
v 0.999999 0.884551 0.884552
v 1.000000 -0.884551 0.884551
v 0.884551 -0.884551 1.000000
v 0.884551 0.884551 1.000001
v -0.884552 0.884551 1.000000
v -0.884551 -0.884551 1.000000
v -1.000000 -0.884551 0.884551
v -1.000000 0.884551 0.884551
v -1.000000 0.884551 -0.884551
v -1.000000 -0.884551 -0.884552
v 0.884552 0.884551 -1.000000
v 0.884551 -0.884551 -1.000000
v -0.884551 -0.884551 -1.000000
v -0.884551 0.884551 -1.000000
v 0.805846 -0.911022 -0.805846
v 0.805846 -0.911022 0.805846
v -0.805845 -0.911022 -0.805846
v -0.805846 -0.911022 0.805845
v 0.805846 0.911022 -0.805845
v -0.805846 0.911022 -0.805846
v 0.805845 0.911022 0.805846
v -0.805846 0.911022 0.805845
v 0.911022 -0.805846 -0.805845
v 0.911022 0.805846 -0.805845
v 0.911022 -0.805846 0.805846
v 0.911021 0.805846 0.805846
v 0.805846 -0.805846 0.911022
v 0.805845 0.805846 0.911022
v -0.805846 -0.805846 0.911022
v -0.805846 0.805846 0.911022
v -0.911022 -0.805846 0.805845
v -0.911022 0.805846 0.805845
v -0.911022 -0.805846 -0.805846
v -0.911022 0.805846 -0.805846
v 0.805846 -0.805846 -0.911022
v 0.805846 0.805846 -0.911021
v -0.805845 0.805846 -0.911022
v -0.805845 -0.805846 -0.911022
v 0.904890 1.000000 -0.960603
v -0.904889 1.000000 -0.960604
v -0.868233 1.000000 -0.923947
v 0.868233 1.000000 -0.923947
v -0.960604 1.000000 -0.904889
v -0.960604 1.000000 0.904889
v -0.923948 1.000000 0.868233
v -0.923947 1.000000 -0.868233
v -0.904890 1.000000 0.960604
v 0.904889 1.000000 0.960604
v 0.868232 1.000000 0.923948
v -0.868233 1.000000 0.923947
v 0.960603 1.000000 0.904890
v 0.960604 1.000000 -0.904889
v 0.923948 1.000000 -0.868232
v 0.923947 1.000000 0.868233
v 0.904890 0.952747 -0.960603
v -0.904889 0.952747 -0.960604
v 0.868233 0.952747 -0.923947
v -0.868233 0.952747 -0.923947
v -0.960604 0.952747 0.904889
v -0.960604 0.952747 -0.904889
v -0.923947 0.952747 -0.868233
v -0.923948 0.952747 0.868233
v 0.904889 0.952747 0.960604
v -0.904890 0.952747 0.960604
v -0.868233 0.952747 0.923947
v 0.868232 0.952747 0.923948
v 0.960604 0.952747 -0.904889
v 0.960603 0.952747 0.904890
v 0.923947 0.952747 0.868233
v 0.923948 0.952747 -0.868232
v 0.962762 -0.910099 1.000000
v 0.962761 0.910100 1.000001
v 0.921789 0.869127 1.000001
v 0.921789 -0.869127 1.000000
v 0.910099 0.962762 1.000001
v -0.910100 0.962762 1.000000
v -0.869127 0.921789 1.000000
v 0.869126 0.921789 1.000001
v -0.962762 0.910099 1.000000
v -0.962762 -0.910100 1.000000
v -0.921789 -0.869127 1.000000
v -0.921790 0.869127 1.000000
v -0.910100 -0.962762 1.000000
v 0.910100 -0.962762 1.000000
v 0.869127 -0.921789 1.000000
v -0.869127 -0.921789 1.000000
v 0.962762 -0.910099 0.932194
v 0.962761 0.910100 0.932195
v 0.921789 -0.869127 0.932194
v 0.921789 0.869127 0.932195
v 0.910099 0.962762 0.932195
v -0.910100 0.962762 0.932194
v 0.869126 0.921789 0.932195
v -0.869127 0.921789 0.932194
v -0.962762 -0.910100 0.932194
v -0.962762 0.910099 0.932194
v -0.921790 0.869127 0.932194
v -0.921789 -0.869127 0.932194
v 0.910100 -0.962762 0.932194
v -0.910100 -0.962762 0.932194
v -0.869127 -0.921789 0.932194
v 0.869127 -0.921789 0.932194
v 0.967466 -0.907273 -0.961591
v 0.967467 0.907273 -0.961591
v 0.967467 0.868642 -0.922960
v 0.967466 -0.868642 -0.922960
v 0.967467 0.961591 -0.907272
v 0.967466 0.961591 0.907273
v 0.967466 0.922960 0.868642
v 0.967467 0.922960 -0.868641
v 0.967466 0.907273 0.961592
v 0.967466 -0.907273 0.961591
v 0.967466 -0.868642 0.922960
v 0.967466 0.868642 0.922961
v 0.967466 -0.961591 0.907273
v 0.967466 -0.961591 -0.907272
v 0.967466 -0.922960 -0.868642
v 0.967466 -0.922960 0.868642
v 0.226701 -0.911022 -0.226701
v 0.226701 -0.911022 0.226701
v -0.226701 -0.911022 0.226701
v -0.226701 -0.911022 -0.226702
v 0.226701 0.911022 -0.226701
v -0.226701 0.911022 -0.226701
v -0.226702 0.911022 0.226701
v 0.226701 0.911022 0.226701
v 0.911022 -0.226701 -0.226701
v 0.911022 0.226701 -0.226701
v 0.911021 0.226701 0.226702
v 0.911022 -0.226701 0.226701
v 0.226701 -0.226701 0.911022
v 0.226701 0.226701 0.911022
v -0.226702 0.226701 0.911022
v -0.226701 -0.226701 0.911022
v -0.911022 -0.226701 0.226701
v -0.911022 0.226701 0.226701
v -0.911022 0.226701 -0.226701
v -0.911022 -0.226701 -0.226702
v 0.226702 0.226701 -0.911022
v 0.226701 -0.226701 -0.911022
v -0.226701 -0.226701 -0.911022
v -0.226701 0.226701 -0.911022
v 0.747546 -0.665098 0.911022
v 0.747546 0.665098 0.911022
v 0.285000 0.202553 0.911022
v 0.285001 -0.202553 0.911022
v 0.665098 0.747546 0.911022
v -0.665098 0.747546 0.911022
v -0.202553 0.285001 0.911022
v 0.202552 0.285001 0.911022
v -0.747546 0.665098 0.911022
v -0.747546 -0.665098 0.911022
v -0.285001 -0.202553 0.911022
v -0.285001 0.202553 0.911022
v -0.665098 -0.747546 0.911022
v 0.665098 -0.747546 0.911022
v 0.202553 -0.285001 0.911022
v -0.202553 -0.285001 0.911022
v 0.747546 0.665098 -0.911021
v 0.747546 -0.665098 -0.911022
v 0.285001 -0.202553 -0.911022
v 0.285001 0.202553 -0.911022
v 0.665098 -0.747546 -0.911022
v -0.665098 -0.747546 -0.911022
v -0.202553 -0.285001 -0.911022
v 0.202553 -0.285001 -0.911022
v -0.747546 -0.665098 -0.911022
v -0.747546 0.665098 -0.911022
v -0.285001 0.202553 -0.911022
v -0.285001 -0.202553 -0.911022
v -0.665098 0.747546 -0.911022
v 0.665099 0.747546 -0.911021
v 0.202553 0.285001 -0.911022
v -0.202553 0.285001 -0.911022
v 0.747546 -0.665098 0.811526
v 0.747546 0.665098 0.811527
v 0.285001 -0.202553 0.811526
v 0.285000 0.202553 0.811527
v 0.665098 0.747546 0.811527
v -0.665098 0.747546 0.811526
v 0.202552 0.285001 0.811527
v -0.202553 0.285001 0.811526
v -0.747546 -0.665098 0.811526
v -0.747546 0.665098 0.811526
v -0.285001 0.202553 0.811526
v -0.285001 -0.202553 0.811526
v 0.665098 -0.747546 0.811526
v -0.665098 -0.747546 0.811526
v -0.202553 -0.285001 0.811526
v 0.202553 -0.285001 0.811526
v 0.747546 -0.665098 -0.811526
v 0.747546 0.665098 -0.811526
v 0.285001 0.202553 -0.811526
v 0.285001 -0.202553 -0.811526
v 0.665098 -0.747546 -0.811526
v -0.665098 -0.747546 -0.811527
v 0.202553 -0.285001 -0.811526
v -0.202553 -0.285001 -0.811526
v -0.747546 -0.665098 -0.811527
v -0.747546 0.665098 -0.811526
v -0.285001 -0.202553 -0.811526
v -0.285001 0.202553 -0.811526
v 0.665099 0.747546 -0.811526
v -0.665098 0.747546 -0.811526
v -0.202553 0.285001 -0.811526
v 0.202553 0.285001 -0.811526
v 0.911022 -0.672358 -0.750553
v 0.911022 0.672358 -0.750553
v 0.911022 0.203799 -0.281993
v 0.911022 -0.203799 -0.281993
v 0.911022 0.750553 -0.672358
v 0.911021 0.750553 0.672359
v 0.911021 0.281994 0.203799
v 0.911022 0.281994 -0.203798
v 0.911021 0.672358 0.750554
v 0.911022 -0.672358 0.750553
v 0.911022 -0.203799 0.281994
v 0.911021 0.203799 0.281994
v 0.911022 -0.750553 0.672358
v 0.911022 -0.750553 -0.672358
v 0.911022 -0.281994 -0.203798
v 0.911022 -0.281994 0.203799
v -0.911022 -0.672358 0.750553
v -0.911022 0.672358 0.750553
v -0.911022 0.203799 0.281993
v -0.911022 -0.203799 0.281993
v -0.911022 0.750553 0.672358
v -0.911022 0.750553 -0.672358
v -0.911022 0.281994 -0.203799
v -0.911022 0.281994 0.203798
v -0.911022 0.672358 -0.750553
v -0.911022 -0.672358 -0.750554
v -0.911022 -0.203799 -0.281994
v -0.911022 0.203799 -0.281994
v -0.911022 -0.750553 -0.672359
v -0.911022 -0.750553 0.672358
v -0.911022 -0.281994 0.203798
v -0.911022 -0.281994 -0.203799
v 0.797809 -0.672358 -0.750553
v 0.797809 0.672358 -0.750553
v 0.797808 -0.203799 -0.281993
v 0.797809 0.203799 -0.281993
v 0.797809 0.750553 -0.672358
v 0.797808 0.750553 0.672359
v 0.797809 0.281994 -0.203798
v 0.797808 0.281994 0.203799
v 0.797809 -0.672358 0.750553
v 0.797808 0.672358 0.750554
v 0.797808 0.203799 0.281994
v 0.797809 -0.203799 0.281994
v 0.797809 -0.750553 -0.672358
v 0.797809 -0.750553 0.672358
v 0.797809 -0.281994 0.203799
v 0.797808 -0.281994 -0.203798
v -0.797809 -0.672358 0.750553
v -0.797809 0.672358 0.750553
v -0.797809 -0.203799 0.281993
v -0.797809 0.203799 0.281993
v -0.797809 0.750553 0.672358
v -0.797809 0.750553 -0.672358
v -0.797809 0.281994 0.203798
v -0.797809 0.281994 -0.203799
v -0.797808 -0.672358 -0.750554
v -0.797809 0.672358 -0.750553
v -0.797809 0.203799 -0.281994
v -0.797809 -0.203799 -0.281994
v -0.797809 -0.750553 0.672358
v -0.797808 -0.750553 -0.672359
v -0.797809 -0.281994 -0.203799
v -0.797809 -0.281994 0.203798
vn -0.7490 0.6625 -0.0000
vn 0.6625 -0.0000 0.7490
vn -0.0000 -0.6625 0.7490
vn -0.0000 0.6625 0.7490
vn -0.7490 -0.6625 0.0000
vn 0.7490 0.0000 -0.6625
vn 0.0000 -1.0000 0.0000
vn 0.0000 0.0000 -1.0000
vn -0.7071 0.0000 -0.7071
vn 1.0000 0.0000 0.0000
vn -0.0000 0.0000 1.0000
vn -0.7071 -0.7071 0.0000
vn 0.7071 -0.7071 0.0000
vn 0.0000 1.0000 0.0000
vn -0.7071 0.7071 0.0000
vn -1.0000 -0.0000 0.0000
vn -0.7490 -0.0000 0.6625
vn 0.0000 -0.6625 -0.7490
vn 0.6625 0.7490 -0.0000
vn -0.6625 -0.0000 -0.7490
vn 0.7490 0.6625 0.0000
vn -0.0000 0.7490 0.6625
vn -0.7490 0.0000 -0.6625
vn 0.7490 -0.6625 0.0000
vn 0.6625 -0.7490 0.0000
vn -0.6625 0.7490 -0.0000
vn 0.0000 0.6625 -0.7490
vn -0.0000 -0.7490 0.6625
vn 0.0000 -0.7490 -0.6625
vn 0.6625 0.0000 -0.7490
vn -0.6625 -0.7490 -0.0000
vn 0.7490 0.0000 0.6625
vn 0.0000 0.7490 -0.6625
vn -0.6625 -0.0000 0.7490
vn -0.7071 0.0000 0.7071
vn 0.7071 0.0000 -0.7071
vn 0.7071 0.0000 0.7071
vn 0.7071 0.7071 0.0000
vn 0.7631 -0.0000 0.6463
vn 0.7631 -0.4570 -0.4570
vn 0.7631 -0.0000 -0.6463
vn 0.7631 0.4570 -0.4570
vn 0.7631 -0.6463 0.0000
vn 0.7631 0.6463 0.0000
vn 0.7631 0.4570 0.4570
vn 0.7631 -0.4570 0.4570
vn 0.0000 -0.7071 -0.7071
vn 0.0000 0.7071 0.7071
vn 0.0000 0.7071 -0.7071
vn 0.0000 -0.7071 0.7071
usemtl Material
s off
f 16//1 13//1 37//1 39//1
f 17//2 18//2 42//2 41//2
f 12//3 9//3 33//3 35//3
f 13//4 14//4 38//4 37//4
f 9//5 10//5 34//5 33//5
f 31//6 32//6 55//6 56//6
f 1//7 2//7 10//7 9//7
f 2//7 3//7 11//7 10//7
f 3//7 4//7 12//7 11//7
f 4//7 1//7 9//7 12//7
f 65//8 66//8 81//8 82//8
f 60//9 57//9 73//9 75//9
f 61//10 62//10 77//10 78//10
f 57//11 58//11 74//11 73//11
f 121//10 122//10 123//10 124//10
f 125//10 126//10 127//10 128//10
f 129//10 130//10 131//10 132//10
f 133//10 134//10 135//10 136//10
f 100//12 97//12 114//12 115//12
f 90//13 91//13 108//13 106//13
f 101//14 102//14 117//14 118//14
f 96//15 93//15 109//15 111//15
f 3//16 7//16 26//16 25//16
f 7//16 8//16 27//16 26//16
f 8//16 4//16 28//16 27//16
f 4//16 3//16 25//16 28//16
f 5//8 1//8 30//8 29//8
f 1//8 4//8 31//8 30//8
f 4//8 8//8 32//8 31//8
f 8//8 5//8 29//8 32//8
f 137//7 138//7 139//7 140//7
f 141//14 142//14 143//14 144//14
f 145//10 146//10 147//10 148//10
f 149//11 150//11 151//11 152//11
f 153//16 154//16 155//16 156//16
f 157//8 158//8 159//8 160//8
f 21//17 22//17 46//17 45//17
f 10//18 11//18 36//18 34//18
f 20//19 17//19 41//19 43//19
f 25//20 26//20 50//20 49//20
f 14//21 15//21 40//21 38//21
f 24//22 21//22 45//22 47//22
f 29//23 30//23 53//23 54//23
f 11//24 12//24 35//24 36//24
f 18//25 19//25 44//25 42//25
f 28//26 25//26 49//26 51//26
f 15//27 16//27 39//27 40//27
f 22//28 23//28 48//28 46//28
f 32//29 29//29 54//29 55//29
f 19//30 20//30 43//30 44//30
f 26//31 27//31 52//31 50//31
f 23//32 24//32 47//32 48//32
f 30//33 31//33 56//33 53//33
f 27//34 28//34 51//34 52//34
f 5//14 8//14 58//14 57//14
f 8//14 14//14 59//14 58//14
f 14//14 13//14 60//14 59//14
f 13//14 5//14 57//14 60//14
f 8//14 7//14 62//14 61//14
f 7//14 15//14 63//14 62//14
f 15//14 14//14 64//14 63//14
f 14//14 8//14 61//14 64//14
f 7//14 6//14 66//14 65//14
f 6//14 16//14 67//14 66//14
f 16//14 15//14 68//14 67//14
f 15//14 7//14 65//14 68//14
f 6//14 5//14 70//14 69//14
f 5//14 13//14 71//14 70//14
f 13//14 16//14 72//14 71//14
f 16//14 6//14 69//14 72//14
f 73//14 74//14 76//14 75//14
f 78//14 77//14 80//14 79//14
f 82//14 81//14 84//14 83//14
f 86//14 85//14 88//14 87//14
f 64//35 61//35 78//35 79//35
f 69//16 70//16 85//16 86//16
f 58//36 59//36 76//36 74//36
f 68//37 65//37 82//37 83//37
f 62//9 63//9 80//9 77//9
f 72//36 69//36 86//36 87//36
f 59//8 60//8 75//8 76//8
f 66//35 67//35 84//35 81//35
f 63//16 64//16 79//16 80//16
f 70//37 71//37 88//37 85//37
f 67//11 68//11 83//11 84//11
f 71//10 72//10 87//10 88//10
f 2//11 6//11 90//11 89//11
f 6//11 22//11 91//11 90//11
f 22//11 21//11 92//11 91//11
f 21//11 2//11 89//11 92//11
f 6//11 7//11 94//11 93//11
f 7//11 23//11 95//11 94//11
f 23//11 22//11 96//11 95//11
f 22//11 6//11 93//11 96//11
f 7//11 3//11 98//11 97//11
f 3//11 24//11 99//11 98//11
f 24//11 23//11 100//11 99//11
f 23//11 7//11 97//11 100//11
f 3//11 2//11 102//11 101//11
f 2//11 21//11 103//11 102//11
f 21//11 24//11 104//11 103//11
f 24//11 3//11 101//11 104//11
f 105//11 106//11 108//11 107//11
f 109//11 110//11 112//11 111//11
f 114//11 113//11 116//11 115//11
f 118//11 117//11 120//11 119//11
f 94//38 95//38 112//38 110//38
f 104//13 101//13 118//13 119//13
f 91//10 92//10 107//10 108//10
f 98//15 99//15 116//15 113//15
f 95//14 96//14 111//14 112//14
f 102//12 103//12 120//12 117//12
f 99//16 100//16 115//16 116//16
f 103//7 104//7 119//7 120//7
f 89//16 90//16 106//16 105//16
f 93//7 94//7 110//7 109//7
f 92//38 89//38 105//38 107//38
f 97//10 98//10 113//10 114//10
f 1//39 5//39 122//39 121//39
f 5//40 18//40 123//40 122//40
f 18//41 17//41 124//41 123//41
f 17//42 1//42 121//42 124//42
f 5//43 6//43 126//43 125//43
f 6//42 19//42 127//42 126//42
f 19//44 18//44 128//44 127//44
f 18//45 5//45 125//45 128//45
f 6//41 2//41 130//41 129//41
f 2//45 20//45 131//45 130//45
f 20//39 19//39 132//39 131//39
f 19//46 6//46 129//46 132//46
f 2//44 1//44 134//44 133//44
f 1//46 17//46 135//46 134//46
f 17//43 20//43 136//43 135//43
f 20//40 2//40 133//40 136//40
f 33//7 34//7 138//7 137//7
f 34//7 36//7 139//7 138//7
f 36//7 35//7 140//7 139//7
f 35//7 33//7 137//7 140//7
f 37//14 38//14 142//14 141//14
f 38//14 40//14 143//14 142//14
f 40//14 39//14 144//14 143//14
f 39//14 37//14 141//14 144//14
f 253//14 254//14 285//14 286//14
f 226//47 227//47 260//47 258//47
f 246//48 247//48 280//48 278//48
f 228//49 225//49 257//49 259//49
f 180//13 177//13 210//13 211//13
f 171//16 172//16 203//16 204//16
f 191//14 192//14 223//14 224//14
f 177//16 178//16 209//16 210//16
f 248//49 245//49 277//49 279//49
f 239//7 240//7 271//7 272//7
f 225//11 226//11 258//11 257//11
f 245//7 246//7 278//7 277//7
f 170//15 171//15 204//15 201//15
f 190//15 191//15 224//15 221//15
f 172//12 169//12 202//12 203//12
f 192//38 189//38 222//38 223//38
f 45//11 46//11 162//11 161//11
f 46//11 150//11 163//11 162//11
f 150//11 149//11 164//11 163//11
f 149//11 45//11 161//11 164//11
f 46//11 48//11 166//11 165//11
f 48//11 151//11 167//11 166//11
f 151//11 150//11 168//11 167//11
f 150//11 46//11 165//11 168//11
f 48//11 47//11 170//11 169//11
f 47//11 152//11 171//11 170//11
f 152//11 151//11 172//11 171//11
f 151//11 48//11 169//11 172//11
f 47//11 45//11 174//11 173//11
f 45//11 149//11 175//11 174//11
f 149//11 152//11 176//11 175//11
f 152//11 47//11 173//11 176//11
f 54//8 53//8 178//8 177//8
f 53//8 158//8 179//8 178//8
f 158//8 157//8 180//8 179//8
f 157//8 54//8 177//8 180//8
f 53//8 56//8 182//8 181//8
f 56//8 159//8 183//8 182//8
f 159//8 158//8 184//8 183//8
f 158//8 53//8 181//8 184//8
f 56//8 55//8 186//8 185//8
f 55//8 160//8 187//8 186//8
f 160//8 159//8 188//8 187//8
f 159//8 56//8 185//8 188//8
f 55//8 54//8 190//8 189//8
f 54//8 157//8 191//8 190//8
f 157//8 160//8 192//8 191//8
f 160//8 55//8 189//8 192//8
f 193//11 194//11 196//11 195//11
f 197//11 198//11 200//11 199//11
f 202//11 201//11 204//11 203//11
f 206//11 205//11 208//11 207//11
f 210//8 209//8 212//8 211//8
f 213//8 214//8 216//8 215//8
f 217//8 218//8 220//8 219//8
f 222//8 221//8 224//8 223//8
f 178//38 179//38 212//38 209//38
f 185//10 186//10 218//10 217//10
f 165//7 166//7 198//7 197//7
f 179//10 180//10 211//10 212//10
f 188//15 185//15 217//15 219//15
f 168//15 165//15 197//15 199//15
f 186//12 187//12 220//12 218//12
f 166//38 167//38 200//38 198//38
f 173//14 174//14 205//14 206//14
f 187//16 188//16 219//16 220//16
f 167//14 168//14 199//14 200//14
f 176//13 173//13 206//13 207//13
f 174//12 175//12 208//12 205//12
f 181//14 182//14 214//14 213//14
f 161//16 162//16 194//16 193//16
f 175//7 176//7 207//7 208//7
f 184//12 181//12 213//12 215//12
f 164//38 161//38 193//38 195//38
f 182//13 183//13 216//13 214//13
f 162//13 163//13 196//13 194//13
f 189//7 190//7 221//7 222//7
f 169//10 170//10 201//10 202//10
f 183//7 184//7 215//7 216//7
f 163//10 164//10 195//10 196//10
f 41//10 42//10 226//10 225//10
f 42//10 146//10 227//10 226//10
f 146//10 145//10 228//10 227//10
f 145//10 41//10 225//10 228//10
f 42//10 44//10 230//10 229//10
f 44//10 147//10 231//10 230//10
f 147//10 146//10 232//10 231//10
f 146//10 42//10 229//10 232//10
f 44//10 43//10 234//10 233//10
f 43//10 148//10 235//10 234//10
f 148//10 147//10 236//10 235//10
f 147//10 44//10 233//10 236//10
f 43//10 41//10 238//10 237//10
f 41//10 145//10 239//10 238//10
f 145//10 148//10 240//10 239//10
f 148//10 43//10 237//10 240//10
f 49//16 50//16 242//16 241//16
f 50//16 154//16 243//16 242//16
f 154//16 153//16 244//16 243//16
f 153//16 49//16 241//16 244//16
f 50//16 52//16 246//16 245//16
f 52//16 155//16 247//16 246//16
f 155//16 154//16 248//16 247//16
f 154//16 50//16 245//16 248//16
f 52//16 51//16 250//16 249//16
f 51//16 156//16 251//16 250//16
f 156//16 155//16 252//16 251//16
f 155//16 52//16 249//16 252//16
f 51//16 49//16 254//16 253//16
f 49//16 153//16 255//16 254//16
f 153//16 156//16 256//16 255//16
f 156//16 51//16 253//16 256//16
f 257//10 258//10 260//10 259//10
f 261//10 262//10 264//10 263//10
f 266//10 265//10 268//10 267//10
f 270//10 269//10 272//10 271//10
f 273//16 274//16 276//16 275//16
f 277//16 278//16 280//16 279//16
f 282//16 281//16 284//16 283//16
f 286//16 285//16 288//16 287//16
f 233//8 234//8 265//8 266//8
f 247//14 248//14 279//14 280//14
f 227//8 228//8 259//8 260//8
f 256//50 253//50 286//50 287//50
f 236//50 233//50 266//50 267//50
f 254//47 255//47 288//47 285//47
f 234//48 235//48 268//48 265//48
f 241//8 242//8 274//8 273//8
f 255//7 256//7 287//7 288//7
f 235//11 236//11 267//11 268//11
f 244//48 241//48 273//48 275//48
f 242//50 243//50 276//50 274//50
f 249//11 250//11 281//11 282//11
f 229//7 230//7 262//7 261//7
f 243//11 244//11 275//11 276//11
f 252//47 249//47 282//47 283//47
f 232//48 229//48 261//48 263//48
f 250//49 251//49 284//49 281//49
f 230//49 231//49 264//49 262//49
f 237//14 238//14 269//14 270//14
f 251//8 252//8 283//8 284//8
f 231//14 232//14 263//14 264//14
f 240//47 237//47 270//47 271//47
f 238//50 239//50 272//50 269//50
